<?xml version="1.0" encoding="UTF-8" standalone="no"?>
<!-- Generator: Adobe Illustrator 24.3.0, SVG Export Plug-In . SVG Version: 6.00 Build 0)  -->

<svg
   version="1.0"
   id="圖層_1"
   x="0px"
   y="0px"
   viewBox="0 0 194.5 36.099998"
   xml:space="preserve"
   sodipodi:docname="AIA-logo-black.svg"
   width="194.5"
   height="36.099998"
   inkscape:version="1.4.3 (0d15f75, 2025-12-25)"
   xmlns:inkscape="http://www.inkscape.org/namespaces/inkscape"
   xmlns:sodipodi="http://sodipodi.sourceforge.net/DTD/sodipodi-0.dtd"
   xmlns="http://www.w3.org/2000/svg"
   xmlns:svg="http://www.w3.org/2000/svg"><defs
   id="defs3" /><sodipodi:namedview
   id="namedview3"
   pagecolor="#ffffff"
   bordercolor="#000000"
   borderopacity="0.25"
   inkscape:showpageshadow="2"
   inkscape:pageopacity="0.0"
   inkscape:pagecheckerboard="0"
   inkscape:deskcolor="#d1d1d1"
   inkscape:zoom="8.88"
   inkscape:cx="97.184685"
   inkscape:cy="18.186937"
   inkscape:window-width="1920"
   inkscape:window-height="1017"
   inkscape:window-x="-8"
   inkscape:window-y="-8"
   inkscape:window-maximized="1"
   inkscape:current-layer="圖層_1" />
<style
   type="text/css"
   id="style1">
	.st0{fill:#000000;}
</style>
<g
   id="g3"
   transform="translate(-2.8,-11.8)">
	<path
   class="st0"
   d="m 42.2,22.1 -4,-9.6 H 30.3 L 35.2,24 c 3.5,-1 5.8,-1.6 7,-1.9 z m -8.7,9.1 C 32,32 28.6,34.1 25.7,37.1 l 3.2,6.8 c 3.4,0 6.9,0.3 10.2,0.7 z M 5.4,47 c 0.6,-0.2 1.1,-0.3 1.7,-0.5 0,0 0,0 0.1,0 0.3,-0.1 0.5,-0.1 0.8,-0.2 0,0 0,0 0,0 0.6,-0.1 1.2,-0.3 1.8,-0.4 1.4,-0.3 2.8,-0.6 4.3,-0.8 C 20,37.4 26.8,32.4 36.9,27.9 l 7.4,17.6 c 3.1,0.6 6.1,1.4 8.9,2.4 L 43.7,25.2 c 2.9,-1.1 6,-2.2 9.3,-3.3 l 0.7,-1.2 c -7.2,1.5 -14.8,3.4 -21.9,6 L 25.9,12.6 H 18.5 L 3,47.4 c -0.1,0.1 -0.1,0.3 -0.2,0.4 0.2,-0.1 0.5,-0.2 0.8,-0.3 0.1,0 0.1,0 0.2,-0.1 0.2,-0.1 0.4,-0.1 0.6,-0.2 0.1,0 0.1,0 0.2,-0.1 0.2,0 0.4,0 0.7,-0.1 z m 14.4,-22.6 2.8,6 c -2.7,1.3 -5.2,2.7 -7.6,4.2 z"
   id="path1" />
	<path
   class="st0"
   d="m 68,43.8 v -8.5 h -3.1 v -2.4 h 8.7 v 2.4 h -3.1 v 8.5 z m 7.7,0.2 c -0.9,0 -1.6,-0.2 -2.1,-0.7 -0.5,-0.5 -0.8,-1.1 -0.8,-1.9 0,-0.5 0.1,-1 0.4,-1.4 0.3,-0.4 0.7,-0.7 1.1,-0.9 0.5,-0.2 1.1,-0.3 1.7,-0.3 0.3,0 0.6,0 0.9,0.1 0.3,0 0.6,0.1 0.8,0.2 v -0.5 c 0,-0.3 -0.1,-0.6 -0.4,-0.8 -0.2,-0.2 -0.6,-0.3 -1,-0.3 -0.4,0 -0.8,0.1 -1.2,0.2 -0.4,0.1 -0.8,0.4 -1.3,0.6 l -0.7,-1.8 c 0.5,-0.3 1,-0.6 1.6,-0.7 0.6,-0.2 1.2,-0.3 1.8,-0.3 1.1,0 2,0.3 2.6,0.8 0.6,0.5 0.9,1.3 0.9,2.3 v 5 H 77.7 V 43 c -0.2,0.2 -0.5,0.4 -0.9,0.6 -0.2,0.3 -0.6,0.4 -1.1,0.4 z m 0.6,-1.9 c 0.3,0 0.6,0 0.8,-0.1 0.3,-0.1 0.5,-0.2 0.7,-0.4 v -0.7 c -0.2,-0.1 -0.4,-0.1 -0.6,-0.2 -0.2,0 -0.5,-0.1 -0.7,-0.1 -0.4,0 -0.7,0.1 -1,0.2 -0.2,0.1 -0.3,0.3 -0.3,0.6 0,0.2 0.1,0.4 0.3,0.5 0.2,0.1 0.5,0.2 0.8,0.2 z m 5.3,1.7 v -7.9 h 2.3 v 7.9 z m 1.1,-8.6 c -0.4,0 -0.7,-0.1 -0.9,-0.4 -0.3,-0.3 -0.4,-0.6 -0.4,-0.9 0,-0.4 0.1,-0.7 0.4,-0.9 0.3,-0.3 0.6,-0.4 0.9,-0.4 0.4,0 0.7,0.1 1,0.4 0.3,0.2 0.4,0.6 0.4,0.9 0,0.4 -0.1,0.7 -0.4,0.9 -0.3,0.2 -0.6,0.4 -1,0.4 z m 4.5,8.6 -2.3,-7.9 h 2.3 L 88,39 c 0,0.1 0.1,0.3 0.1,0.6 0,0.2 0.1,0.4 0.1,0.6 0,-0.2 0.1,-0.4 0.1,-0.6 0.1,-0.2 0.1,-0.4 0.1,-0.6 l 0.8,-3.1 h 2.1 l 0.8,3.1 c 0,0.1 0.1,0.3 0.1,0.6 0.1,0.2 0.1,0.5 0.1,0.6 0,-0.2 0.1,-0.4 0.1,-0.6 0,-0.2 0.1,-0.4 0.1,-0.6 l 0.8,-3.1 h 2.3 l -2.3,7.9 h -2.1 l -0.8,-3.5 c 0,-0.1 -0.1,-0.3 -0.1,-0.6 -0.1,-0.3 -0.1,-0.5 -0.1,-0.7 0,0.2 -0.1,0.4 -0.1,0.7 0,0.3 -0.1,0.5 -0.1,0.6 l -0.8,3.5 z M 98.9,44 C 98,44 97.3,43.8 96.8,43.3 96.3,42.8 96,42.2 96,41.4 c 0,-0.5 0.1,-1 0.4,-1.4 0.3,-0.4 0.7,-0.7 1.1,-0.9 0.5,-0.2 1.1,-0.3 1.7,-0.3 0.3,0 0.6,0 0.9,0.1 0.3,0 0.6,0.1 0.8,0.2 v -0.5 c 0,-0.3 -0.1,-0.6 -0.3,-0.8 -0.2,-0.2 -0.6,-0.3 -1,-0.3 -0.4,0 -0.8,0.1 -1.2,0.2 -0.4,0.1 -0.8,0.4 -1.3,0.6 l -0.7,-1.8 c 0.5,-0.3 1,-0.6 1.6,-0.7 0.6,-0.2 1.2,-0.3 1.8,-0.3 1.1,0 2,0.3 2.6,0.8 0.6,0.5 0.9,1.3 0.9,2.3 v 5 H 101 V 43 c -0.2,0.2 -0.5,0.4 -0.9,0.6 -0.4,0.3 -0.8,0.4 -1.2,0.4 z m 0.6,-1.9 c 0.3,0 0.6,0 0.8,-0.1 0.3,-0.1 0.5,-0.2 0.7,-0.4 v -0.7 c -0.2,-0.1 -0.4,-0.1 -0.6,-0.2 -0.2,0 -0.5,-0.1 -0.7,-0.1 -0.4,0 -0.7,0.1 -1,0.2 -0.2,0.1 -0.4,0.3 -0.4,0.6 0,0.2 0.1,0.4 0.3,0.5 0.2,0.1 0.5,0.2 0.9,0.2 z m 5.2,1.7 v -7.9 h 2.3 v 0.7 c 0.3,-0.3 0.6,-0.5 0.9,-0.7 0.4,-0.2 0.8,-0.2 1.2,-0.2 0.8,0 1.5,0.3 2,0.8 0.5,0.5 0.7,1.2 0.7,2.1 v 5.2 h -2.3 v -4.1 c 0,-0.7 -0.1,-1.1 -0.3,-1.4 -0.2,-0.3 -0.5,-0.4 -0.9,-0.4 -0.5,0 -0.8,0.1 -1,0.4 -0.2,0.3 -0.3,0.7 -0.3,1.4 v 4.1 z m 10.5,0 4.3,-10.9 h 2.3 l 4.4,10.9 h -2.7 l -0.8,-2.1 h -4.1 l -0.8,2.1 z m 4.3,-4.3 h 2.4 L 121,37.3 c 0,-0.1 -0.1,-0.2 -0.1,-0.2 0,-0.1 -0.1,-0.2 -0.1,-0.3 0,-0.1 -0.1,-0.2 -0.1,-0.3 0,0.1 -0.1,0.2 -0.1,0.3 0,0.1 -0.1,0.2 -0.1,0.3 0,0.1 -0.1,0.2 -0.1,0.2 z m 7.3,4.3 V 32.9 h 2.5 v 10.9 z m 5.7,0 4.3,-10.9 h 2.3 l 4.4,10.9 h -2.7 L 140,41.7 h -4 l -0.8,2.1 z m 4.3,-4.3 h 2.4 l -0.9,-2.2 c 0,-0.1 -0.1,-0.2 -0.1,-0.2 0,-0.1 -0.1,-0.2 -0.1,-0.3 0,-0.1 -0.1,-0.2 -0.1,-0.3 0,0.1 -0.1,0.2 -0.1,0.3 0,0.1 -0.1,0.2 -0.1,0.3 0,0.1 -0.1,0.2 -0.1,0.2 z m 10.5,4.5 c -0.8,0 -1.4,-0.2 -2,-0.5 -0.6,-0.3 -1,-0.8 -1.3,-1.4 -0.3,-0.6 -0.5,-1.4 -0.5,-2.2 0,-0.8 0.2,-1.6 0.5,-2.2 0.3,-0.6 0.7,-1.1 1.3,-1.5 0.6,-0.3 1.2,-0.5 2,-0.5 0.9,0 1.7,0.2 2.3,0.6 0.6,0.4 1,1.1 1.3,1.9 l -2.2,0.7 c -0.1,-0.3 -0.3,-0.6 -0.5,-0.8 -0.2,-0.2 -0.5,-0.3 -0.8,-0.3 -0.4,0 -0.7,0.2 -1,0.5 -0.3,0.4 -0.4,0.8 -0.4,1.4 0,0.6 0.1,1 0.4,1.4 0.3,0.4 0.6,0.5 1,0.5 0.3,0 0.6,-0.1 0.8,-0.3 0.2,-0.2 0.4,-0.5 0.5,-0.9 l 2.2,0.6 c -0.3,0.9 -0.7,1.6 -1.3,2.1 -0.6,0.7 -1.3,0.9 -2.3,0.9 z m 7.1,0 c -0.9,0 -1.6,-0.2 -2.1,-0.7 -0.5,-0.5 -0.8,-1.1 -0.8,-1.9 0,-0.5 0.1,-1 0.4,-1.4 0.3,-0.4 0.7,-0.7 1.1,-0.9 0.5,-0.2 1.1,-0.3 1.7,-0.3 0.3,0 0.6,0 0.9,0.1 0.3,0 0.6,0.1 0.8,0.2 v -0.5 c 0,-0.3 -0.1,-0.6 -0.4,-0.8 -0.2,-0.2 -0.6,-0.3 -1,-0.3 -0.4,0 -0.8,0.1 -1.2,0.2 -0.4,0.1 -0.8,0.4 -1.3,0.6 l -0.7,-1.8 c 0.5,-0.3 1,-0.6 1.6,-0.7 0.6,-0.2 1.2,-0.3 1.8,-0.3 1.1,0 2,0.3 2.6,0.8 0.6,0.5 0.9,1.3 0.9,2.3 v 5 h -2.3 V 43 c -0.2,0.2 -0.5,0.4 -0.9,0.6 -0.2,0.3 -0.6,0.4 -1.1,0.4 z m 0.6,-1.9 c 0.3,0 0.6,0 0.8,-0.1 0.3,-0.1 0.5,-0.2 0.7,-0.4 v -0.7 c -0.2,-0.1 -0.4,-0.1 -0.6,-0.2 -0.2,0 -0.5,-0.1 -0.7,-0.1 -0.4,0 -0.7,0.1 -1,0.2 -0.2,0.1 -0.4,0.3 -0.4,0.6 0,0.2 0.1,0.4 0.3,0.5 0.2,0.1 0.5,0.2 0.9,0.2 z m 8.1,1.9 c -1,0 -1.8,-0.4 -2.4,-1.1 -0.6,-0.7 -0.9,-1.8 -0.9,-3.1 0,-0.8 0.1,-1.5 0.4,-2.2 0.3,-0.6 0.7,-1.1 1.2,-1.5 0.5,-0.4 1.1,-0.5 1.7,-0.5 0.7,0 1.2,0.3 1.6,0.8 v -2.8 l 2.3,-1 v 11.2 h -2.3 v -0.7 c -0.3,0.6 -0.9,0.9 -1.6,0.9 z m 0.4,-2.2 c 0.3,0 0.5,0 0.7,-0.1 0.2,-0.1 0.3,-0.2 0.5,-0.3 v -2.9 c -0.1,-0.2 -0.3,-0.3 -0.5,-0.4 C 164,38 163.8,38 163.5,38 c -0.4,0 -0.8,0.2 -1,0.5 -0.2,0.3 -0.4,0.8 -0.4,1.4 0,0.4 0,0.8 0.1,1.1 0.1,0.3 0.2,0.5 0.4,0.6 0.3,0.1 0.6,0.2 0.9,0.2 z M 172,44 c -0.8,0 -1.5,-0.2 -2,-0.5 -0.6,-0.3 -1,-0.8 -1.3,-1.4 -0.3,-0.6 -0.5,-1.4 -0.5,-2.2 0,-0.8 0.2,-1.6 0.5,-2.2 0.3,-0.6 0.7,-1.1 1.3,-1.4 0.6,-0.3 1.2,-0.5 2,-0.5 0.7,0 1.3,0.1 1.8,0.4 0.5,0.3 1,0.7 1.3,1.2 0.3,0.6 0.5,1.3 0.5,2.1 0,0.1 0,0.3 0,0.5 0,0.2 0,0.4 -0.1,0.6 h -5.1 c 0,0.3 0.1,0.5 0.2,0.7 0.1,0.2 0.3,0.4 0.5,0.5 0.2,0.1 0.5,0.2 0.8,0.2 0.4,0 0.7,-0.1 1,-0.2 0.3,-0.1 0.5,-0.3 0.8,-0.6 l 1.3,1.3 c -0.4,0.5 -0.8,0.8 -1.3,1.1 -0.5,0.3 -1.1,0.4 -1.7,0.4 z m -1.5,-5.1 h 2.9 c 0,-0.3 -0.1,-0.5 -0.2,-0.7 -0.1,-0.2 -0.3,-0.3 -0.5,-0.4 -0.2,-0.1 -0.4,-0.1 -0.7,-0.1 -0.4,0 -0.7,0.1 -1,0.3 -0.3,0.2 -0.5,0.5 -0.5,0.9 z m 6.1,4.9 v -7.9 h 2.3 v 0.7 c 0.3,-0.3 0.6,-0.6 0.8,-0.7 0.3,-0.1 0.6,-0.2 1,-0.2 0.5,0 0.9,0.1 1.2,0.3 0.3,0.2 0.6,0.5 0.7,0.8 0.3,-0.4 0.6,-0.6 1,-0.8 0.4,-0.2 0.9,-0.3 1.5,-0.3 1.1,0 1.8,0.3 2.3,0.8 0.5,0.5 0.7,1.3 0.7,2.5 v 4.9 h -2.3 v -4 c 0,-0.7 -0.1,-1.1 -0.3,-1.4 -0.2,-0.3 -0.5,-0.4 -0.9,-0.4 -0.3,0 -0.5,0.1 -0.7,0.2 -0.2,0.1 -0.3,0.3 -0.4,0.6 -0.1,0.3 -0.1,0.6 -0.1,1 V 44 h -2.3 v -4 c 0,-0.7 -0.1,-1.1 -0.3,-1.4 -0.2,-0.3 -0.5,-0.4 -0.9,-0.4 -0.4,0 -0.7,0.1 -0.9,0.4 -0.2,0.3 -0.3,0.7 -0.3,1.4 v 4.1 h -2.1 z m 14,3 1.2,-3.1 -3,-7.9 h 2.4 l 1.6,4.1 c 0,0.1 0.1,0.2 0.1,0.3 0,0.1 0.1,0.3 0.1,0.4 0,-0.1 0.1,-0.3 0.1,-0.4 0.1,-0.1 0.1,-0.3 0.1,-0.4 l 1.6,-4.1 h 2.4 l -4.2,11 h -2.4 z"
   id="path2" />
	<path
   class="st0"
   d="m 79.3,18.2 -2,1.4 c -0.2,-0.3 -0.4,-0.7 -0.7,-1.1 -8.1,0.4 -9.4,0.4 -10.4,0.7 -0.1,-0.4 -0.5,-1.6 -0.8,-2.2 0.5,-0.1 0.8,-0.4 1.4,-0.9 0.5,-0.5 2.2,-2.4 3.2,-4.3 l 2.3,1 c -0.9,1.3 -2,2.6 -3.2,3.7 l 5.7,-0.1 C 74.3,15.8 73.7,15.2 73.2,14.7 L 75,13.5 c 1.5,1.4 3.4,3.3 4.3,4.7 z m -4.1,4.1 h -6.3 v 2 h 6.3 z m -8.6,5 v -7.2 h 11.1 v 7.2 h -2.5 v -0.8 h -6.3 v 0.8 z M 92.2,14.9 v 0 h -3.7 v -1.1 h 1.4 C 89.8,13.5 89.6,13.1 89.5,12.7 L 91,12.4 c 0.2,0.4 0.4,0.9 0.5,1.2 l -0.6,0.1 h 1.4 v 1.1 c 0.1,-0.1 0.3,-0.2 0.4,-0.4 0.2,-0.2 0.7,-1.2 0.9,-2.1 l 1.2,0.4 c -0.2,0.5 -0.6,1.1 -1,1.7 h 0.5 c 0.1,-0.2 0.3,-0.5 0.4,-0.7 l 1.1,0.5 c -0.4,0.7 -1,1.5 -1.6,2.2 l 0.7,-0.1 c 0,-0.1 -0.1,-0.2 -0.1,-0.3 l 0.9,-0.3 c 0.3,0.6 0.6,1.3 0.7,1.7 l -0.9,0.4 c 0,-0.1 -0.1,-0.3 -0.1,-0.5 -1.9,0.3 -2.3,0.4 -2.6,0.5 -0.1,-0.2 -0.3,-0.6 -0.4,-0.9 0.3,0 0.5,-0.2 0.8,-0.6 0.1,-0.1 0.4,-0.5 0.7,-0.9 -0.7,0.1 -1,0.1 -1.1,0.2 -0.2,0 -0.5,-0.4 -0.6,-0.7 z m 2.7,5.3 -1,0.3 c 0,-0.5 -0.1,-1.3 -0.3,-1.9 l 0.9,-0.3 c 0.2,0.6 0.4,1.4 0.4,1.9 z m -2.3,-2 1,0.3 c -0.1,0.8 -0.3,1.6 -0.6,2.1 -0.2,-0.2 -0.6,-0.5 -0.9,-0.7 0.2,-0.5 0.4,-1.1 0.5,-1.7 z M 92,16.5 v 1 h -3.1 v -1 z m -1.8,2.3 v 0.5 h 0.4 v -0.5 z m -1.3,1.5 V 17.9 H 92 v 2.4 z M 92,15.2 v 1 h -3.1 v -1 z m -3.2,2.3 -0.9,0.4 c 0,-0.1 -0.1,-0.3 -0.1,-0.5 -1.9,0.3 -2.3,0.4 -2.6,0.5 0,-0.2 -0.3,-0.6 -0.4,-0.9 0.3,0 0.5,-0.3 0.8,-0.6 0.1,-0.1 0.4,-0.5 0.7,-0.9 -0.7,0.1 -1,0.1 -1.1,0.2 -0.1,-0.2 -0.3,-0.6 -0.4,-0.8 0.2,0 0.4,-0.2 0.6,-0.4 0.2,-0.2 0.7,-1.2 0.9,-2.1 l 1.2,0.4 c -0.2,0.6 -0.6,1.1 -1,1.7 h 0.6 c 0.1,-0.2 0.3,-0.5 0.4,-0.7 l 1.1,0.5 c -0.4,0.7 -1,1.5 -1.6,2.2 l 0.6,-0.1 c 0,-0.1 -0.1,-0.2 -0.1,-0.3 l 0.9,-0.3 c 0,0.5 0.3,1.2 0.4,1.7 z m -0.2,2.1 -0.9,0.4 c 0,-0.4 -0.2,-1.1 -0.4,-1.7 L 88.1,18 c 0.3,0.5 0.4,1.1 0.5,1.6 z m -1.3,0.4 -1,0.3 c 0,-0.5 -0.1,-1.2 -0.3,-1.8 l 0.9,-0.3 c 0.2,0.6 0.4,1.3 0.4,1.8 z m -2.4,-1.7 1,0.3 c -0.1,0.8 -0.3,1.6 -0.6,2.1 -0.2,-0.2 -0.6,-0.5 -0.9,-0.7 0.3,-0.5 0.4,-1.1 0.5,-1.7 z M 85.2,14 83.8,15.7 C 83.4,15.2 82.3,14.4 81.5,14 l 1.3,-1.6 c 0.8,0.4 1.8,1 2.4,1.6 z m -0.4,4 -1.3,1.8 C 83,19.3 82,18.6 81.2,18.2 l 1.3,-1.6 c 0.7,0.3 1.8,0.9 2.3,1.4 z M 83.6,27.2 81.5,26 c 0.6,-1.3 1.4,-3.3 2,-5.2 l 1.8,1.2 c -0.4,1.8 -1,3.6 -1.7,5.2 z m 4.5,-3.4 h 7.8 c 0,0 0,0.5 -0.1,0.8 -0.2,1.2 -0.5,1.9 -0.9,2.3 -0.4,0.4 -1,0.4 -1.6,0.5 -0.6,0 -1.5,0 -2.5,0 0,-0.5 -0.3,-1.2 -0.6,-1.7 0.9,0.1 2,0.1 2.4,0.1 0.3,0 0.5,0 0.7,-0.1 0.1,-0.1 0.2,-0.2 0.3,-0.5 h -7.9 c 0.3,-0.8 0.5,-2 0.7,-3 H 93 v -0.3 h -7.1 v -1.2 h 9.2 v 2.8 h -6.9 z m 6.8,-5.5 0.9,-0.3 c 0.2,0.6 0.4,1.4 0.5,1.9 l -0.9,0.4 c -0.1,-0.5 -0.2,-1.3 -0.5,-2 z m 9.2,-6.1 h 2.7 c 0,0.7 0,1.6 -0.1,2.7 0.2,2.3 1.2,7.9 6.8,10.4 -0.7,0.6 -1.4,1.4 -1.7,2 -3.4,-1.6 -5.1,-4.4 -6.1,-7 -0.9,2.6 -2.6,5.2 -5.6,7.1 -0.4,-0.6 -1.2,-1.4 -1.9,-1.9 6.2,-3.6 5.8,-10.4 5.9,-13.3 z M 123.6,24 h 6.1 v 2.3 H 115 V 24 h 5.9 v -7.8 h -5 v -2.4 h 12.9 v 2.4 h -5.2 V 24 Z m 10,-8.1 h 1.1 v -0.2 -0.6 h -0.5 c -0.2,0.3 -0.4,0.5 -0.6,0.8 z m 8.6,6.4 h -6.1 v 0.5 h 6.1 z m -6.1,2.7 h 6.1 v -0.6 h -6.1 z m 3.2,-6.1 -1.7,1.4 c -0.4,-0.4 -1.2,-1 -1.8,-1.4 -0.4,0.5 -1,1.1 -1.7,1.5 h 10.5 v 6.9 h -2.4 v -0.5 h -6.1 v 0.5 h -2.3 v -6.7 c -0.2,0.1 -0.5,0.3 -0.8,0.4 -0.3,-0.5 -1,-1.2 -1.5,-1.5 1.4,-0.5 2.2,-1.2 2.6,-1.9 h -2.4 v -1.8 h 1.1 c -0.4,-0.3 -1,-0.6 -1.3,-0.7 0.8,-0.7 1.4,-1.9 1.7,-3.1 l 2,0.4 c -0.1,0.3 -0.2,0.6 -0.3,0.8 h 3.7 V 15 h -1.9 v 0.6 0.2 h 2.3 v 1.8 h -2.1 c 0.9,0.4 2.1,1.1 2.4,1.3 z m 4.4,-1.3 v -2.3 h -1.9 v 2.3 z m -4.1,-4.3 h 6.4 v 6.4 h -6.4 z m 18.5,4.6 v -0.5 h -2.2 v -1.3 h 2.2 v -0.4 h -1.8 v -1.3 h 1.8 V 14.1 H 156 v -1.3 h 2.1 v -0.6 h 2.2 v 0.6 h 2.3 v 1.3 h -2.3 v 0.3 h 2.1 v 1.3 h -2.1 v 0.4 h 2.6 v 1.3 h -2.6 v 0.5 z m -6.9,0 v -0.5 h -2.5 v -1.3 h 2.5 v -0.4 h -1.8 v -1.3 h 1.8 V 14.1 H 149 v -1.3 h 2.2 v -0.6 h 2.1 v 0.6 h 2.1 v 1.3 h -2.1 v 0.3 h 1.9 v 1.3 h -1.9 v 0.4 h 2.2 v 1.3 h -2.2 v 0.5 z m 8.3,3.6 v -0.4 h -10.9 v -1.3 h 10.9 V 19.5 H 150 v -1.4 h 11.8 v 1.7 h 1.5 v 1.3 h -1.5 v 1.8 h -4.7 c 0.4,0.3 0.8,0.6 1,0.9 l -1.6,1.3 c -0.4,-0.5 -1.2,-1.1 -1.8,-1.6 l 0.7,-0.6 h -5.5 v -1.4 z m -9.2,5.6 -2,-1.2 c 0.8,-0.7 1.5,-1.7 1.9,-2.7 l 2,0.9 c -0.5,1 -1.1,2.2 -1.9,3 z m 13.2,-1.2 -2,1.1 c -0.3,-0.5 -0.7,-1.2 -1.3,-1.8 -0.3,1.5 -0.9,2 -2.5,2 h -2.4 c -2.4,0 -2.9,-0.6 -2.9,-2.4 v -1.5 h 2.3 v 1.5 c 0,0.4 0.1,0.5 0.9,0.5 h 1.9 c 0.6,0 0.7,-0.1 0.8,-1.1 0.4,0.3 1,0.5 1.6,0.7 -0.2,-0.3 -0.5,-0.5 -0.7,-0.7 l 1.9,-1 c 0.8,0.7 1.9,1.9 2.4,2.7 z m 11,-11.8 -1.1,0.9 c -0.2,-0.2 -0.4,-0.4 -0.7,-0.6 -0.4,0.3 -0.8,0.5 -1.2,0.7 -0.3,-0.3 -0.8,-0.8 -1.2,-1 0.4,-0.2 0.8,-0.3 1.1,-0.5 -0.3,-0.1 -0.5,-0.3 -0.7,-0.4 l 1,-0.8 c 0.3,0.1 0.6,0.3 0.8,0.4 0.2,-0.2 0.4,-0.4 0.5,-0.5 l 1.5,0.4 c -0.2,0.3 -0.5,0.6 -0.7,0.8 0.3,0.2 0.6,0.4 0.7,0.6 z m -5.7,3.5 V 18 h 2.4 c -0.2,-0.2 -0.5,-0.5 -0.7,-0.7 v 0.4 h -1.7 z m -1.1,2 v 1.9 h -2.2 V 18 h 1.1 l -0.3,-4.8 c 1,-0.2 2.4,-0.6 3.3,-0.9 l 0.9,1.3 c -0.6,0.2 -1.3,0.4 -2,0.6 v 0.3 h 1.9 v 1.4 h -1.8 v 0.4 h 1.8 v 0.6 c 0.3,-0.1 0.6,-0.3 0.9,-0.4 -0.3,-0.2 -0.5,-0.3 -0.8,-0.4 l 1.1,-0.9 c 0.3,0.1 0.6,0.3 0.9,0.5 0.2,-0.2 0.4,-0.4 0.6,-0.6 l 1.5,0.4 c -0.2,0.3 -0.5,0.6 -0.8,0.9 0.3,0.2 0.6,0.5 0.9,0.7 l -1.1,1 c -0.2,-0.2 -0.5,-0.4 -0.8,-0.7 -0.4,0.3 -0.7,0.5 -1.1,0.7 h 4.8 v -0.4 h -1.6 v -1.4 h 1.8 V 15.9 H 175 v -1.4 h 1.8 v -0.4 h -1.9 v -1.4 h 4.2 c -0.1,1.7 -0.2,3.7 -0.4,5.3 h 1.2 v 3.5 h -2.3 v -1.9 z m 12.2,3.1 v 1.8 H 174 v 0.7 c 0,1 -0.2,1.5 -1,1.8 -0.7,0.3 -1.7,0.3 -2.8,0.3 -0.1,-0.6 -0.4,-1.4 -0.7,-1.9 0.7,0 1.6,0 1.9,0 0.3,0 0.3,0 0.3,-0.2 v -0.7 h -6.4 v -1.8 h 6.4 v -0.3 c 0.4,-0.2 0.9,-0.5 1.4,-0.8 h -4.5 V 20 h 6.7 l 0.5,-0.1 1.3,1.2 c -0.8,0.5 -1.6,1.1 -2.5,1.6 z m 13.8,-6.2 h -3.6 l 1.6,0.7 c -0.5,0.7 -1.1,1.5 -1.8,2.2 l 0.9,-0.2 c 0.3,0.9 0.7,1.7 1.2,2.4 0.5,-0.7 0.8,-1.5 1.1,-2.4 l 1.6,0.4 c -0.6,-0.8 -1.3,-1.6 -2,-2.3 z m 3.3,2.6 -1.7,1.5 c 0,-0.1 -0.1,-0.2 -0.2,-0.3 -0.4,1.1 -0.9,2.1 -1.5,3 1,0.8 2.2,1.4 3.7,1.8 -0.5,0.5 -1.2,1.5 -1.5,2.1 -1.5,-0.5 -2.7,-1.2 -3.7,-2.1 -1.1,0.9 -2.3,1.7 -3.8,2.2 -0.3,-0.5 -1,-1.4 -1.4,-1.8 1.5,-0.5 2.7,-1.2 3.7,-2.2 -0.6,-0.9 -1.1,-1.9 -1.5,-3 -0.2,0.1 -0.3,0.3 -0.5,0.4 -0.4,-0.4 -1,-1 -1.5,-1.4 0.4,0.7 0.9,1.4 1,1.6 l -1.3,1.7 c -0.2,-0.5 -0.4,-1.2 -0.7,-1.9 v 6.5 H 184 v -5.7 c -0.4,1.2 -0.8,2.4 -1.3,3.2 -0.2,-0.7 -0.7,-1.7 -1,-2.3 0.9,-1.2 1.6,-3.3 1.9,-5.1 h -1.4 v -2.1 h 1.8 v -3 h 2.1 v 3 h 1.5 v 2.1 H 186 v 0.4 c 0.2,0.3 0.6,0.8 1,1.5 0.9,-0.7 1.9,-1.8 2.5,-2.8 h -1.6 v -2.1 h 3.4 c -0.2,-0.5 -0.6,-1.1 -0.9,-1.6 l 2.1,-0.7 c 0.5,0.6 0.9,1.4 1.1,2 l -0.9,0.4 h 4.1 v 2.1 h -2.1 c 0.9,0.8 1.8,1.8 2.3,2.6 z"
   id="path3" />
</g>
</svg>
